<?xml version="1.0" encoding="utf-8"?>
<!-- Generator: Adobe Illustrator 26.0.3, SVG Export Plug-In . SVG Version: 6.00 Build 0)  -->
<svg version="1.1" id="Layer_1" xmlns="http://www.w3.org/2000/svg" xmlns:xlink="http://www.w3.org/1999/xlink" x="0px" y="0px"
	 viewBox="0 0 229.0913544 79.3389969" style="enable-background:new 0 0 229.0913544 79.3389969;" xml:space="preserve">
<style type="text/css">
	.st0{fill:#A9CF38;}
</style>
<g>
	<g>
		<path d="M18.787262,5.5303617v56.3624382h22.5263824V77.804863H0V5.5303617H18.787262z"/>
		<rect x="49.3645859" y="28.6320438" width="17.3499889" height="49.172821"/>
		<path d="M78.5995483,28.6320438h17.3499832v6.0377178c4.728508-4.5360889,10.031662-6.8047829,15.9120712-6.8047829
			c7.284523,0,12.8444519,3.0669632,16.6784821,9.2021904c3.8970795-6.1976318,9.4563599-9.298399,16.6784821-9.298399
			c2.3011932,0,4.4723816,0.3354282,6.5187531,1.0062866c2.0437775,0.6708584,3.8015289,1.7252483,5.2719574,3.1631718
			c1.4691162,1.4379234,2.6353302,3.3074837,3.4985962,5.6073799c0.8632812,2.3011971,1.2936096,5.0808372,1.2936096,8.3402176
			V77.804863h-17.3486786V53.5538826c0-2.4923134-0.1768188-4.5373878-0.5278473-6.1352272
			c-0.3523407-1.5965347-0.8632812-2.842041-1.5341339-3.7378197c-0.6708679-0.8944778-1.4535217-1.5003281-2.3480072-1.8214569
			c-0.8957672-0.3185272-1.8539581-0.4797401-2.8758392-0.4797401c-5.5599365,0-8.3395691,4.0589485-8.3395691,12.1742439V77.804863
			h-17.3493423V53.5538826c0-2.4923134-0.1605606-4.55299-0.4797363-6.1833305
			c-0.3204803-1.6290398-0.7833176-2.9226494-1.3898239-3.8821335c-0.6078033-0.9581795-1.3898163-1.6121368-2.3479996-1.9644661
			c-0.9588318-0.3510323-2.0775757-0.5278473-3.3549347-0.5278473c-1.0875473,0-2.1087875,0.1612129-3.0676193,0.4797401
			c-0.9581833,0.3211288-1.8065033,0.943882-2.5404129,1.8695602c-0.7352142,0.9269829-1.3105164,2.2049904-1.7252502,3.8340302
			c-0.4160385,1.6290398-0.622757,3.7547226-0.622757,6.3744469V77.804863H78.5995483V28.6320438z"/>
		<path d="M211.6451569,28.6320438h17.4461975v49.172821h-17.4461975v-5.4630661
			c-3.706604,4.6648026-8.7224426,6.9972-15.0487823,6.9972c-3.5792084,0-6.8697968-0.6565552-9.8730469-1.9657669
			c-3.0045624-1.3092117-5.6242828-3.1462708-7.8604736-5.5111771c-2.2375031-2.3636017-3.9783478-5.1432419-5.2238464-8.338913
			c-1.2455139-3.1956749-1.8695679-6.6773758-1.8695679-10.4489975c0-3.5129013,0.6071472-6.85289,1.8214569-10.0160599
			c1.2130127-3.1631699,2.9070435-5.9272079,5.0808411-8.2921104c2.1711884-2.3636055,4.7597046-4.2318649,7.764267-5.6073818
			c3.0019531-1.3729191,6.3263397-2.0606785,9.9679565-2.0606785c6.1352234,0,11.2160645,2.1412849,15.2411957,6.422554V28.6320438z
			 M189.7902832,53.0741425c0,1.5978355,0.287323,3.0838661,0.8632812,4.4580841
			c0.574646,1.374218,1.3560181,2.5729179,2.3479919,3.5935059c0.9906921,1.0231895,2.1711884,1.8214569,3.5467072,2.3974075
			c1.3729248,0.574646,2.8589478,0.8619766,4.4567871,0.8619766c1.5341339,0,2.9863586-0.2873306,4.3618774-0.8619766
			c1.3729095-0.5759506,2.554718-1.374218,3.5467072-2.3974075c0.9893799-1.0205879,1.7876434-2.2036896,2.3961029-3.5467033
			c0.6071472-1.3417168,0.911377-2.7796402,0.911377-4.3124695c0-1.5341339-0.3042297-2.9863586-0.911377-4.3618736
			c-0.6084595-1.372921-1.406723-2.5716209-2.3961029-3.5948105c-0.9919891-1.0205879-2.1737976-1.8214569-3.5467072-2.3961067
			c-1.3755188-0.5746498-2.8277435-0.8632736-4.3618774-0.8632736c-1.5978394,0-3.0838623,0.2886238-4.4567871,0.8632736
			c-1.3755188,0.5746498-2.556015,1.3755188-3.5467072,2.3961067c-0.9919739,1.0231895-1.7733459,2.1893883-2.3479919,3.4986
			C190.0776062,50.118988,189.7902832,51.5413094,189.7902832,53.0741425z"/>
	</g>
	<path class="st0" d="M67.7682571,9.7624512c0-0.005127,0.0007324-0.0097656,0.0007324-0.0148926h-0.0014648
		C67.7512894,4.3615723,63.3816032,0,57.9918327,0c-5.3898315,0-9.7595215,4.3615723-9.7757568,9.7475586h-0.0014648
		c0,0.005127,0.0007324,0.0097656,0.0007324,0.0148926c0,0.0048828-0.0007324,0.0097656-0.0007324,0.0146484h0.0014648
		c0.0162354,5.3859863,4.3859253,9.7475586,9.7757568,9.7475586c5.3897705,0,9.7594566-4.3615723,9.775692-9.7475586h0.0014648
		C67.7689896,9.7722168,67.7682571,9.767334,67.7682571,9.7624512z"/>
</g>
</svg>
