<?xml version="1.0" encoding="UTF-8"?>
<svg xmlns="http://www.w3.org/2000/svg" xmlns:xlink="http://www.w3.org/1999/xlink" width="288.750001" height="100" viewBox="0 0 288.750001 100" version="1.1">
<g id="surface1">
<path style=" stroke:none;fill-rule:nonzero;fill:rgb(0%,0%,0%);fill-opacity:1;" d="M 23.679688 6.96875 L 23.679688 78.011719 L 52.074219 78.011719 L 52.074219 98.066406 L 0 98.066406 L 0 6.96875 Z M 23.679688 6.96875 "/>
<path style=" stroke:none;fill-rule:nonzero;fill:rgb(0%,0%,0%);fill-opacity:1;" d="M 62.21875 36.089844 L 84.089844 36.089844 L 84.089844 98.066406 L 62.21875 98.066406 Z M 62.21875 36.089844 "/>
<path style=" stroke:none;fill-rule:nonzero;fill:rgb(0%,0%,0%);fill-opacity:1;" d="M 99.066406 36.089844 L 120.9375 36.089844 L 120.9375 43.699219 C 126.894531 37.980469 133.582031 35.121094 140.992188 35.121094 C 150.171875 35.121094 157.179688 38.988281 162.015625 46.71875 C 166.925781 38.910156 173.933594 35 183.035156 35 C 185.9375 35 188.671875 35.421875 191.25 36.269531 C 193.828125 37.113281 196.042969 38.441406 197.898438 40.253906 C 199.75 42.066406 201.21875 44.425781 202.304688 47.324219 C 203.394531 50.222656 203.9375 53.726562 203.9375 57.835938 L 203.9375 98.066406 L 182.070312 98.066406 L 182.070312 67.5 C 182.070312 64.359375 181.847656 61.78125 181.40625 59.765625 C 180.960938 57.753906 180.316406 56.183594 179.472656 55.054688 C 178.625 53.929688 177.640625 53.164062 176.511719 52.761719 C 175.382812 52.359375 174.175781 52.15625 172.886719 52.15625 C 165.878906 52.15625 162.375 57.269531 162.375 67.5 L 162.375 98.066406 L 140.507812 98.066406 L 140.507812 67.5 C 140.507812 64.359375 140.304688 61.761719 139.902344 59.707031 C 139.5 57.652344 138.917969 56.023438 138.152344 54.8125 C 137.386719 53.605469 136.398438 52.78125 135.191406 52.335938 C 133.984375 51.894531 132.574219 51.671875 130.964844 51.671875 C 129.59375 51.671875 128.304688 51.875 127.097656 52.277344 C 125.890625 52.679688 124.820312 53.464844 123.894531 54.632812 C 122.96875 55.800781 122.242188 57.414062 121.722656 59.464844 C 121.195312 61.519531 120.9375 64.199219 120.9375 67.5 L 120.9375 98.066406 L 99.066406 98.066406 Z M 99.066406 36.089844 "/>
<path style=" stroke:none;fill-rule:nonzero;fill:rgb(0%,0%,0%);fill-opacity:1;" d="M 266.761719 36.089844 L 288.75 36.089844 L 288.75 98.066406 L 266.761719 98.066406 L 266.761719 91.179688 C 262.089844 97.058594 255.765625 100 247.792969 100 C 243.28125 100 239.132812 99.171875 235.347656 97.523438 C 231.5625 95.871094 228.261719 93.558594 225.441406 90.574219 C 222.621094 87.597656 220.425781 84.09375 218.855469 80.066406 C 217.289062 76.039062 216.5 71.648438 216.5 66.894531 C 216.5 62.46875 217.265625 58.257812 218.796875 54.269531 C 220.324219 50.285156 222.460938 46.800781 225.199219 43.820312 C 227.9375 40.839844 231.199219 38.484375 234.988281 36.75 C 238.769531 35.019531 242.960938 34.15625 247.550781 34.15625 C 255.285156 34.15625 261.6875 36.851562 266.761719 42.25 Z M 239.214844 66.894531 C 239.214844 68.910156 239.578125 70.78125 240.300781 72.515625 C 241.027344 74.246094 242.011719 75.757812 243.261719 77.042969 C 244.511719 78.332031 246 79.339844 247.730469 80.066406 C 249.460938 80.789062 251.335938 81.152344 253.351562 81.152344 C 255.285156 81.152344 257.113281 80.789062 258.847656 80.066406 C 260.578125 79.339844 262.066406 78.332031 263.316406 77.042969 C 264.566406 75.757812 265.570312 74.265625 266.335938 72.574219 C 267.101562 70.882812 267.488281 69.070312 267.488281 67.136719 C 267.488281 65.203125 267.101562 63.375 266.335938 61.640625 C 265.570312 59.910156 264.566406 58.398438 263.316406 57.109375 C 262.066406 55.824219 260.578125 54.8125 258.847656 54.089844 C 257.113281 53.363281 255.285156 53 253.351562 53 C 251.335938 53 249.460938 53.363281 247.730469 54.089844 C 246 54.8125 244.511719 55.824219 243.261719 57.109375 C 242.011719 58.398438 241.027344 59.867188 240.300781 61.519531 C 239.578125 63.171875 239.214844 64.964844 239.214844 66.894531 Z M 239.214844 66.894531 "/>
<path style=" stroke:none;fill-rule:nonzero;fill:rgb(66.274512%,81.176472%,21.960784%);fill-opacity:1;" d="M 85.417969 12.304688 C 85.417969 12.296875 85.417969 12.292969 85.417969 12.285156 L 85.414062 12.285156 C 85.394531 5.496094 79.886719 0 73.09375 0 C 66.300781 0 60.792969 5.496094 60.773438 12.285156 L 60.769531 12.285156 C 60.769531 12.292969 60.769531 12.296875 60.769531 12.304688 C 60.769531 12.3125 60.769531 12.316406 60.769531 12.324219 L 60.773438 12.324219 C 60.792969 19.113281 66.300781 24.609375 73.09375 24.609375 C 79.886719 24.609375 85.394531 19.113281 85.414062 12.324219 L 85.417969 12.324219 C 85.417969 12.316406 85.417969 12.3125 85.417969 12.304688 Z M 85.417969 12.304688 "/>
</g>
</svg>
